<svg xmlns="http://www.w3.org/2000/svg" version="1.1" xmlns:xlink="http://www.w3.org/1999/xlink" xmlns:svgjs="http://svgjs.dev/svgjs" width="2000" height="1983" viewBox="0 0 2000 1983"><g transform="matrix(1,0,0,1,0.8498428691839308,0.8028347938941351)"><svg viewBox="0 0 249 247" data-background-color="#ffffff" preserveAspectRatio="xMidYMid meet" height="1983" width="2000" xmlns="http://www.w3.org/2000/svg" xmlns:xlink="http://www.w3.org/1999/xlink"><g id="tight-bounds" transform="matrix(1,0,0,1,-0.10580543721340518,-0.10000009787788144)"><svg viewBox="0 0 249.2115883235284 247.2" height="247.2" width="249.2115883235284"><g><svg viewBox="0 0 310.6438518901599 308.1363940731225" height="247.2" width="249.2115883235284"><g><svg viewBox="0 0 310.6438518901599 308.1363940731225" height="308.1363940731225" width="310.6438518901599"><g id="textblocktransform"><svg viewBox="0 0 310.6438518901599 308.1363940731225" height="308.1363940731225" width="310.6438518901599" id="textblock"><g><svg viewBox="0 0 310.6438518901599 245.67230399999997" height="245.67230399999997" width="310.6438518901599"><path d="M309.917 52.692C308.456 27.191 304.294 20.102 304.294 20.102 291.515-6.164 275.568-0.502 261.241 3.272 235.947 3.425 210.755 9.035 185.519 12.044 132.551 12.503 79.129 4.955 26.423 23.57 21.472 29.282-5.136 24.692 0.881 55.956 2.458 68.961 8.212 83.395 8.037 95.329 8.825 97.42 9.921 92.626 10.388 95.635 12.023 103.744 14.696 99.919 16.887 104.713 13.834 117.515 16.025 128.174 18.113 139.343 14.433 142.25 9.716 140.873 7.598 150.513 7.379 157.5 6.196 156.174 4.897 155.868 3.947 155.664 2.034 156.429 2.356 158.622 3.451 166.119-1.252 170.454 1.698 177.798-0.332 185.755 3.1 192.64 2.633 201.259 2.575 202.993 2.896 204.472 3.407 204.88 5.671 207.073 2.37 211.357 2.721 215.998 25.941 247.721 51.133 225.791 74.923 240.377 81.101 230.177 76.456 243.998 78.925 241.856 80.852 239.357 82.254 249.71 84.43 243.845 84.766 242.162 84.255 238.184 85.453 238.949 86.081 239.357 86.635 239.255 86.723 236.909 86.855 233.39 85.701 235.583 85.394 233.747 88.709 224.465 87.891 246.548 91.002 245.63 90.856 242.927 89.951 239.051 91.805 239.561 93.645 235.685 93.704 232.472 95.339 241.193 95.398 243.08 95.69 244.406 96.157 245.324 101.269 235.838 106.351 248.69 111.711 244.406 114.997 239.714 118.151 246.956 121.481 245.171 122.649 243.743 123.832 241.193 124.956 245.477 138.728 246.395 153.405 242.57 166.461 245.63 201.35 239.918 238.634 247.976 275.422 240.428 284.097 237.521 293.107 233.39 301.563 230.075 301.563 230.075 308.412 220.997 308.412 180.196S309.873 144.495 310.092 112.007C310.311 79.519 311.333 78.193 309.873 52.692Z" opacity="1" fill="#8d021f" data-fill-palette-color="tertiary"></path><g transform="matrix(1,0,0,1,55.76831999999999,26.068561146666667)"><svg width="199.10721189015993" viewBox="5.369999885559082 -38.15999984741211 39.26000213623047 38.15999984741211" height="193.53518170666663" data-palette-color="#ed2647"><path d="M5.37 0L5.37-38.16 13.11-38.16 36.89-25.71 36.89-38.16 44.63-38.16 44.63 0 36.89 0 36.89-17.5 13.11-29.88 13.11 0 5.37 0Z" opacity="1" transform="matrix(1,0,0,1,0,0)" fill="#ed2647" class="wordmark-text-0" data-fill-palette-color="quaternary" id="text-0"></path></svg></g></svg></g><g transform="matrix(1,0,0,1,59.33297571102054,291.361315556583)"><svg viewBox="0 0 191.97790046811883 16.775078516539498" height="16.775078516539498" width="191.97790046811883"><g transform="matrix(1,0,0,1,0,0)"><svg width="191.97790046811883" viewBox="0.5 -45.150001525878906 600.1799926757812 52.45000076293945" height="16.775078516539498" data-palette-color="#8d021f"><path d="M14.2 0L5.6 0 5.6-34.7 0.5-34.7 0.5-42.95 19.3-42.95 19.3-34.7 14.2-34.7 14.2 0ZM21.55 0L21.55-43.2 30.55-43.2 30.55-33Q31.95-37 35.9-37L35.9-37Q39.6-37 41.5-34.65 43.4-32.3 43.4-28.2L43.4-28.2 43.4 0 34.65 0 34.65-27.65Q34.65-28.85 34.1-29.6 33.55-30.35 32.5-30.35L32.5-30.35Q31.6-30.35 31.07-29.58 30.55-28.8 30.55-27.7L30.55-27.7 30.55 0 21.55 0ZM55.5-39.05L46.75-39.05 46.75-45.15 55.5-45.15 55.5-39.05ZM55.5 0L46.75 0 46.75-36.6 55.5-36.6 55.5 0ZM58.94 0L58.94-36.6 67.69-36.6 67.69-31.95Q68.24-34.2 69.59-35.6 70.94-37 73.19-37L73.19-37Q76.89-37 78.67-34.73 80.44-32.45 80.44-28.25L80.44-28.25 80.44 0 71.84 0 71.84-27.35Q71.84-28.55 71.37-29.4 70.89-30.25 69.89-30.25L69.89-30.25Q68.54-30.25 68.12-29.03 67.69-27.8 67.69-25.75L67.69-25.75 67.69 0 58.94 0ZM92.54 0L83.89 0 83.89-43.2 92.54-43.2 92.54-24 96.74-36.6 105.79-36.6 100.29-20.7 107.29 0 97.99 0 92.54-17.25 92.54 0ZM117.14-39.05L108.39-39.05 108.39-45.15 117.14-45.15 117.14-39.05ZM117.14 0L108.39 0 108.39-36.6 117.14-36.6 117.14 0ZM120.59 0L120.59-36.6 129.34-36.6 129.34-31.95Q129.89-34.2 131.24-35.6 132.59-37 134.84-37L134.84-37Q138.54-37 140.31-34.73 142.09-32.45 142.09-28.25L142.09-28.25 142.09 0 133.49 0 133.49-27.35Q133.49-28.55 133.01-29.4 132.54-30.25 131.54-30.25L131.54-30.25Q130.19-30.25 129.76-29.03 129.34-27.8 129.34-25.75L129.34-25.75 129.34 0 120.59 0ZM155.38 5.35Q151.48 5.35 149.26 4.73 147.03 4.1 144.88 2.35L144.88 2.35 147.88-2.7Q151.08-0.8 154.23-0.8L154.23-0.8Q156.28-0.8 157.33-2.1 158.38-3.4 158.38-5.65L158.38-5.65 158.38-7.65Q157.33-3.9 152.83-3.9L152.83-3.9Q149.08-3.9 147.31-6.45 145.53-9 145.53-13.25L145.53-13.25 145.53-27Q145.53-31.85 147.16-34.43 148.78-37 152.83-37L152.83-37Q155.18-37 156.56-35.83 157.93-34.65 158.38-32.5L158.38-32.5 158.38-36.6 167.33-36.6 167.33-6.2Q167.33-0.05 164.48 2.65 161.63 5.35 155.38 5.35L155.38 5.35ZM156.33-10.5Q158.38-10.5 158.38-14.2L158.38-14.2 158.38-27.25Q158.38-28.35 157.78-29.35 157.18-30.35 156.28-30.35L156.28-30.35Q155.13-30.35 154.73-29.53 154.33-28.7 154.33-27.25L154.33-27.25 154.33-14.2Q154.33-12.55 154.73-11.53 155.13-10.5 156.33-10.5L156.33-10.5ZM176.98 5.75L171.83 5.75 173.43 0 170.33 0 170.33-7.3 179.43-7.3 179.43-0.25 176.98 5.75ZM201.43 0.4Q198.23 0.4 196.6-1.13 194.98-2.65 194.45-5.18 193.93-7.7 193.93-11.65L193.93-11.65 194.03-28.15Q194.03-32.05 196-34.52 197.98-37 201.58-37L201.58-37Q205.13-37 206.88-34.65L206.88-34.65 206.88-43.2 215.63-43.2 215.63 0 206.88 0 206.88-3.9Q206.13-1.75 204.85-0.68 203.58 0.4 201.43 0.4L201.43 0.4ZM204.78-6.45Q206.08-6.45 206.48-7.73 206.88-9 206.88-11.15L206.88-11.15 206.88-12.7 206.88-26.45Q206.88-28.05 206.43-29.15 205.98-30.25 204.83-30.25L204.83-30.25Q203.53-30.25 203.1-29.23 202.68-28.2 202.68-26.45L202.68-26.45 202.68-11.05Q202.68-6.45 204.78-6.45L204.78-6.45ZM229.37 0.4Q223.72 0.4 221.27-2.7 218.82-5.8 218.82-11.95L218.82-11.95 218.82-26.65Q218.82-31.7 221.72-34.35 224.62-37 229.82-37L229.82-37Q240.37-37 240.37-26.65L240.37-26.65 240.37-24Q240.37-20 240.27-17.5L240.27-17.5 227.57-17.5 227.57-10.4Q227.57-8.5 227.97-7.43 228.37-6.35 229.67-6.35L229.67-6.35Q230.67-6.35 231.1-6.95 231.52-7.55 231.6-8.33 231.67-9.1 231.67-10.6L231.67-10.6 231.67-14.15 240.37-14.15 240.37-12.05Q240.37-5.65 237.9-2.63 235.42 0.4 229.37 0.4L229.37 0.4ZM227.52-21.85L231.67-21.85 231.67-26.55Q231.67-30.5 229.72-30.5L229.72-30.5Q227.52-30.5 227.52-26.55L227.52-26.55 227.52-21.85ZM258.32 0L248.17 0 242.32-36.6 251.07-36.6 252.87-18.1 253.17-12.15 253.52-18.15 255.52-36.6 264.27-36.6 258.32 0ZM276.82 0.4Q271.17 0.4 268.72-2.7 266.27-5.8 266.27-11.95L266.27-11.95 266.27-26.65Q266.27-31.7 269.17-34.35 272.07-37 277.27-37L277.27-37Q287.82-37 287.82-26.65L287.82-26.65 287.82-24Q287.82-20 287.72-17.5L287.72-17.5 275.02-17.5 275.02-10.4Q275.02-8.5 275.42-7.43 275.82-6.35 277.12-6.35L277.12-6.35Q278.12-6.35 278.54-6.95 278.97-7.55 279.04-8.33 279.12-9.1 279.12-10.6L279.12-10.6 279.12-14.15 287.82-14.15 287.82-12.05Q287.82-5.65 285.34-2.63 282.87 0.4 276.82 0.4L276.82 0.4ZM274.97-21.85L279.12-21.85 279.12-26.55Q279.12-30.5 277.17-30.5L277.17-30.5Q274.97-30.5 274.97-26.55L274.97-26.55 274.97-21.85ZM299.87 0L290.97 0 290.97-43.2 299.87-43.2 299.87 0ZM314.01 0.4Q303.06 0.4 303.06-10.95L303.06-10.95 303.06-25.65Q303.06-30.85 305.99-33.93 308.91-37 314.01-37L314.01-37Q319.11-37 322.04-33.93 324.96-30.85 324.96-25.65L324.96-25.65 324.96-10.95Q324.96 0.4 314.01 0.4L314.01 0.4ZM314.01-6.35Q315.06-6.35 315.56-7.1 316.06-7.85 316.06-9.15L316.06-9.15 316.06-27.05Q316.06-30.25 314.01-30.25L314.01-30.25Q311.96-30.25 311.96-27.05L311.96-27.05 311.96-9.15Q311.96-7.85 312.46-7.1 312.96-6.35 314.01-6.35L314.01-6.35ZM328.21 7.3L328.21-36.6 337.11-36.6 337.11-34.65Q339.01-37 342.36-37L342.36-37Q346.61-37 348.29-34.15 349.96-31.3 349.96-26.25L349.96-26.25 349.96-12.7Q349.96-8.4 349.46-5.68 348.96-2.95 347.26-1.28 345.56 0.4 342.11 0.4L342.11 0.4Q338.81 0.4 337.11-1.45L337.11-1.45 337.11 7.3 328.21 7.3ZM339.21-6.4Q340.41-6.4 340.76-7.5 341.11-8.6 341.11-10.7L341.11-10.7 341.11-26.25Q341.11-28.15 340.76-29.15 340.41-30.15 339.16-30.15L339.16-30.15Q337.11-30.15 337.11-26.35L337.11-26.35 337.11-10.3Q337.11-8.45 337.54-7.43 337.96-6.4 339.21-6.4L339.21-6.4ZM361.91-39.05L353.16-39.05 353.16-45.15 361.91-45.15 361.91-39.05ZM361.91 0L353.16 0 353.16-36.6 361.91-36.6 361.91 0ZM365.36 0L365.36-36.6 374.11-36.6 374.11-31.95Q374.66-34.2 376-35.6 377.36-37 379.61-37L379.61-37Q383.31-37 385.08-34.73 386.86-32.45 386.86-28.25L386.86-28.25 386.86 0 378.25 0 378.25-27.35Q378.25-28.55 377.78-29.4 377.31-30.25 376.31-30.25L376.31-30.25Q374.96-30.25 374.53-29.03 374.11-27.8 374.11-25.75L374.11-25.75 374.11 0 365.36 0ZM400.15 5.35Q396.25 5.35 394.03 4.73 391.8 4.1 389.65 2.35L389.65 2.35 392.65-2.7Q395.85-0.8 399-0.8L399-0.8Q401.05-0.8 402.1-2.1 403.15-3.4 403.15-5.65L403.15-5.65 403.15-7.65Q402.1-3.9 397.6-3.9L397.6-3.9Q393.85-3.9 392.08-6.45 390.3-9 390.3-13.25L390.3-13.25 390.3-27Q390.3-31.85 391.93-34.43 393.55-37 397.6-37L397.6-37Q399.95-37 401.33-35.83 402.7-34.65 403.15-32.5L403.15-32.5 403.15-36.6 412.1-36.6 412.1-6.2Q412.1-0.05 409.25 2.65 406.4 5.35 400.15 5.35L400.15 5.35ZM401.1-10.5Q403.15-10.5 403.15-14.2L403.15-14.2 403.15-27.25Q403.15-28.35 402.55-29.35 401.95-30.35 401.05-30.35L401.05-30.35Q399.9-30.35 399.5-29.53 399.1-28.7 399.1-27.25L399.1-27.25 399.1-14.2Q399.1-12.55 399.5-11.53 399.9-10.5 401.1-10.5L401.1-10.5ZM421.75 5.75L416.6 5.75 418.2 0 415.1 0 415.1-7.3 424.2-7.3 424.2-0.25 421.75 5.75ZM447.8 0L439.14 0 439.14-42.95 456.35-42.95 456.35-34.6 447.8-34.6 447.8-27.75 455.89-27.75 455.89-19.5 447.8-19.5 447.8 0ZM467.64-39.05L458.89-39.05 458.89-45.15 467.64-45.15 467.64-39.05ZM467.64 0L458.89 0 458.89-36.6 467.64-36.6 467.64 0ZM471.09 0L471.09-36.6 479.84-36.6 479.84-31.95Q480.39-34.2 481.74-35.6 483.09-37 485.34-37L485.34-37Q489.04-37 490.81-34.73 492.59-32.45 492.59-28.25L492.59-28.25 492.59 0 483.99 0 483.99-27.35Q483.99-28.55 483.51-29.4 483.04-30.25 482.04-30.25L482.04-30.25Q480.69-30.25 480.26-29.03 479.84-27.8 479.84-25.75L479.84-25.75 479.84 0 471.09 0ZM506.29 0.4Q500.64 0.4 498.19-2.7 495.74-5.8 495.74-11.95L495.74-11.95 495.74-26.65Q495.74-31.7 498.64-34.35 501.54-37 506.74-37L506.74-37Q517.29-37 517.29-26.65L517.29-26.65 517.29-24Q517.29-20 517.19-17.5L517.19-17.5 504.49-17.5 504.49-10.4Q504.49-8.5 504.89-7.43 505.29-6.35 506.59-6.35L506.59-6.35Q507.59-6.35 508.01-6.95 508.44-7.55 508.51-8.33 508.59-9.1 508.59-10.6L508.59-10.6 508.59-14.15 517.29-14.15 517.29-12.05Q517.29-5.65 514.81-2.63 512.34 0.4 506.29 0.4L506.29 0.4ZM504.44-21.85L508.59-21.85 508.59-26.55Q508.59-30.5 506.64-30.5L506.64-30.5Q504.44-30.5 504.44-26.55L504.44-26.55 504.44-21.85ZM530.48 0.4Q519.63 0.4 519.63-10.6L519.63-10.6 519.68-13.5 528.43-13.5 528.48-9.2Q528.48-7.9 528.98-7.23 529.48-6.55 530.63-6.55L530.63-6.55Q532.38-6.55 532.38-9.4L532.38-9.4Q532.38-11.5 531.56-12.7 530.73-13.9 528.93-15.25L528.93-15.25 524.28-18.85Q521.88-20.7 520.83-22.68 519.78-24.65 519.78-28.25L519.78-28.25Q519.78-31.05 521.26-33.02 522.73-35 525.18-36 527.63-37 530.63-37L530.63-37Q541.28-37 541.28-26.4L541.28-26.4 541.28-25.7 532.23-25.7 532.23-27.1Q532.23-28.4 531.81-29.33 531.38-30.25 530.38-30.25L530.38-30.25Q529.48-30.25 529.01-29.73 528.53-29.2 528.53-28.3L528.53-28.3Q528.53-26.3 530.08-25.2L530.08-25.2 535.48-21.25Q538.38-19.1 539.93-16.57 541.48-14.05 541.48-10.2L541.48-10.2Q541.48-5.1 538.58-2.35 535.68 0.4 530.48 0.4L530.48 0.4ZM554.23 0.4Q543.38 0.4 543.38-10.6L543.38-10.6 543.43-13.5 552.18-13.5 552.23-9.2Q552.23-7.9 552.73-7.23 553.23-6.55 554.38-6.55L554.38-6.55Q556.13-6.55 556.13-9.4L556.13-9.4Q556.13-11.5 555.31-12.7 554.48-13.9 552.68-15.25L552.68-15.25 548.03-18.85Q545.63-20.7 544.58-22.68 543.53-24.65 543.53-28.25L543.53-28.25Q543.53-31.05 545.01-33.02 546.48-35 548.93-36 551.38-37 554.38-37L554.38-37Q565.03-37 565.03-26.4L565.03-26.4 565.03-25.7 555.98-25.7 555.98-27.1Q555.98-28.4 555.56-29.33 555.13-30.25 554.13-30.25L554.13-30.25Q553.23-30.25 552.76-29.73 552.28-29.2 552.28-28.3L552.28-28.3Q552.28-26.3 553.83-25.2L553.83-25.2 559.23-21.25Q562.13-19.1 563.68-16.57 565.23-14.05 565.23-10.2L565.23-10.2Q565.23-5.1 562.33-2.35 559.43 0.4 554.23 0.4L554.23 0.4ZM578.18 0.4Q572.53 0.4 570.08-2.7 567.63-5.8 567.63-11.95L567.63-11.95 567.63-26.65Q567.63-31.7 570.53-34.35 573.43-37 578.63-37L578.63-37Q589.18-37 589.18-26.65L589.18-26.65 589.18-24Q589.18-20 589.08-17.5L589.08-17.5 576.38-17.5 576.38-10.4Q576.38-8.5 576.78-7.43 577.18-6.35 578.48-6.35L578.48-6.35Q579.48-6.35 579.9-6.95 580.33-7.55 580.4-8.33 580.48-9.1 580.48-10.6L580.48-10.6 580.48-14.15 589.18-14.15 589.18-12.05Q589.18-5.65 586.7-2.63 584.23 0.4 578.18 0.4L578.18 0.4ZM576.33-21.85L580.48-21.85 580.48-26.55Q580.48-30.5 578.53-30.5L578.53-30.5Q576.33-30.5 576.33-26.55L576.33-26.55 576.33-21.85ZM598.93-11.7L593.63-11.7 591.93-42.95 600.68-42.95 598.93-11.7ZM600.68 0L591.93 0 591.93-7.3 600.68-7.3 600.68 0Z" opacity="1" transform="matrix(1,0,0,1,0,0)" fill="#8d021f" class="slogan-text-1" data-fill-palette-color="secondary" id="text-1"></path></svg></g></svg></g></svg></g></svg></g><g></g></svg></g><defs></defs></svg><rect width="249.2115883235284" height="247.2" fill="none" stroke="none" visibility="hidden"></rect></g></svg></g></svg>